# xmcd
#
# Track frame offsets: 
#        150
#        18272
#        33261
#        46413
#        61644
#        72666
#        86791
#        100473
#        112782
#        131652
#        142814
#        159455
#        174335
#        186403
#        189244
#        201904
#        221103
#        237221
#        252876
#
# Disc length: 3633 seconds
#
# Revision: 0
# Processed by: cddbd v1.5.2PL0 Copyright (c) Steve Scherf et al.
# Submitted via: ExactAudioCopy v1.1
#
DISCID=080e2f13
DTITLE=Chris LeDoux and The Western Underground  - Chris LeDoux and The We
DTITLE=stern Underground Live Front Row Center
DYEAR=1996
DGENRE=Country
TTITLE0=Hooked On An 8 Second Ride
TTITLE1=Cadillac Cowboy
TTITLE2=County Fair
TTITLE3=Look At You Girl
TTITLE4=Under This Old Hat
TTITLE5=Big Love
TTITLE6=Cadillac Ranch
TTITLE7=Watcha' Gonna' Do With A Cowboy
TTITLE8=This Cowboy's Hat
TTITLE9=Copenhagen
TTITLE10=Riding For A Fall
TTITLE11=Wild and Wooly
TTITLE12=Can't See Him From The Road
TTITLE13=Introductions
TTITLE14=Dallas Days and Fort Worth Nights
TTITLE15=Tougher Than The Rest
TTITLE16=Even Cowboys Like A Little Bit Of Rock and Roll
TTITLE17=For Your Love
TTITLE18=Honky Tonk World
EXTD=
EXTT0=
EXTT1=
EXTT2=
EXTT3=
EXTT4=
EXTT5=
EXTT6=
EXTT7=
EXTT8=
EXTT9=
EXTT10=
EXTT11=
EXTT12=
EXTT13=
EXTT14=
EXTT15=
EXTT16=
EXTT17=
EXTT18=
PLAYORDER=
